<svg xmlns="http://www.w3.org/2000/svg" viewBox="0 0 1257.44 685.08"><defs><style>.a{fill:#a52b00;}.b{fill:#f74c00;}.c{fill:#fff;}.d{fill:#010000;}.e{fill:#e8bd6f;}</style></defs><title>logo</title><path class="a" d="M789.17,476.71c-114.6,0-218.17,13.78-296.17,36.23v-5.07c-78,25.09-127.68,60-127.68,98.51a47.94,47.94,0,0,0,3.7,17.93l-8,14.32s-6.42,8.36,4.93,26c10,15.55,60.17,76.43,86.63,108.32,11.37,16.34,19.08,26.41,19.76,25.44,1.06-1.55-7.07-32.23-29.64-67.25-10.53-18.8-23.36-43.71-30.91-62.12C432.89,682.37,461,694.47,493,704.89v-.16C571,727.18,674.57,741,789.17,741c131.16,0,248.83-18.05,327.83-46.5V523.21C1038,494.76,920.33,476.71,789.17,476.71Z" transform="translate(-61.31 -180.36)"/><path class="a" d="M1234.87,635.54l-13.43-27.83c.07-1.05.12-2.11.12-3.17,0-31.55-32.81-60.62-88-83.9v167.8c25.75-10.86,46.65-23,61.59-36-4.4,17.68-19.44,53.46-31.43,78.61-19.71,36-26.84,67.31-25.93,68.86.59,1,7.31-9.4,17.22-26.2,23.07-32.88,66.79-95.64,75.53-111.63C1240.44,643.92,1234.87,635.54,1234.87,635.54Z" transform="translate(-61.31 -180.36)"/><path class="b" d="M1312.87,635.38l-88.3-65c-.83-2.89-1.66-5.79-2.52-8.66l29-42a15.77,15.77,0,0,0,1.63-14.71,14.71,14.71,0,0,0-11.12-9.17l-49-8.33c-1.9-3.87-3.89-7.69-5.89-11.48l20.61-47.17a15.67,15.67,0,0,0-1.14-14.75,14.34,14.34,0,0,0-12.62-6.75l-49.77,1.81c-2.58-3.35-5.19-6.68-7.87-9.94l11.44-50.56a15.62,15.62,0,0,0-3.88-14.24,14.16,14.16,0,0,0-13.63-4.05l-48.48,11.92q-4.71-4.17-9.56-8.2l1.75-51.9A15.39,15.39,0,0,0,1067,269a14.06,14.06,0,0,0-14.14-1.19l-45.23,21.5c-3.64-2.09-7.3-4.16-11-6.16l-8-51.15a15.12,15.12,0,0,0-8.82-11.6,14,14,0,0,0-14.07,1.71l-40.33,30.26c-4-1.32-8-2.59-12-3.79l-17.38-48.51a14.75,14.75,0,0,0-10.81-9.6A14.25,14.25,0,0,0,871.78,195l-33.94,38c-4.11-.47-8.21-.9-12.33-1.25L799.3,187.55a14.26,14.26,0,0,0-24.77,0l-26.21,44.16c-4.12.35-8.24.78-12.34,1.25L702,195a14.29,14.29,0,0,0-13.49-4.54,14.75,14.75,0,0,0-10.81,9.6l-17.39,48.51c-4,1.2-8,2.48-12,3.79L608,222.09A14,14,0,0,0,594,220.38a15.15,15.15,0,0,0-8.81,11.6l-8,51.15q-5.55,3-11,6.16l-45.22-21.5A14,14,0,0,0,506.78,269a15.34,15.34,0,0,0-6.47,13.17l1.74,51.9q-4.83,4-9.56,8.2L444,330.33a14.19,14.19,0,0,0-13.65,4.05,15.63,15.63,0,0,0-3.89,14.24l11.42,50.56q-4,4.92-7.84,9.94l-49.77-1.81a14.53,14.53,0,0,0-12.63,6.75,15.75,15.75,0,0,0-1.14,14.75L387.14,476c-2,3.79-4,7.61-5.91,11.48l-49,8.33A14.69,14.69,0,0,0,321.07,505a15.83,15.83,0,0,0,1.64,14.71l29,42c-.22.74-.43,1.49-.65,2.24l-82,87.12s-12.57,9.85,5.73,33c16.13,20.42,99,101.38,142.75,143.79C436,849.36,448.67,862.7,450,861.54c2.09-1.83-8.87-41-45.27-87-28.06-41.24-64.48-104.66-55.94-112,0,0,9.71-12.33,29.2-21.2h0s411.32,189.73,792.85,3.21h0c43.58-7.82,70,15.53,70,15.53,9.1,5.27-14.47,70.49-33.84,113.66-26.35,49-30.22,87.28-28,88.6,1.41.85,11-13.74,24.67-37,33.75-47,97.54-136.67,109.22-158.44C1326.11,642.3,1312.87,635.38,1312.87,635.38Z" transform="translate(-61.31 -180.36)"/><path d="M930.86,755.57c1.57-1.34,2.4-2.14,2.4-2.14L798.61,740.92c109.9-145,197.86-28,207.23-15.1v29.75Z" transform="translate(-61.31 -180.36)"/><path class="b" d="M312,474.43l.3-.45-.31,0C312,474.14,312,474.28,312,474.43Z" transform="translate(-61.31 -180.36)"/><path class="b" d="M283.54,506s2.16-1.71,5.57-4.93c-13.52-18-18.32-40.49-31.11-60.1-1-3,1-6,0-9h-3c-1-2,1-4,0-6h-1.11l-.2,6.56S207.47,388,209.51,309.88c0,0-143.78,69.18,24.47,191.58,0,0,5.68,65.7,157,145l22.46-50.64S302.32,552.58,283.54,506Z" transform="translate(-61.31 -180.36)"/><path d="M865,536.51s41.1-45,82.21,0c0,0,32.3,60,0,90,0,0-52.85,42-82.21,0C865,626.52,829.72,593.52,865,536.51Z" transform="translate(-61.31 -180.36)"/><path class="c" d="M912.54,553.2c0,17.53-10.33,31.73-23.07,31.73s-23.07-14.2-23.07-31.73,10.33-31.73,23.07-31.73S912.54,535.67,912.54,553.2Z" transform="translate(-61.31 -180.36)"/><path d="M681.49,524.22S752,493,771.24,562.68c0,0,20.16,81.22-57.9,85.8C713.34,648.48,613.8,629.31,681.49,524.22Z" transform="translate(-61.31 -180.36)"/><path class="c" d="M716.9,554.35c0,18.08-10.65,32.73-23.79,32.73s-23.79-14.65-23.79-32.73,10.65-32.73,23.79-32.73S716.9,536.28,716.9,554.35Z" transform="translate(-61.31 -180.36)"/><path class="b" d="M1137.23,612.87s-14.72,58.64-106.29,120.27l-25.68,6S922.2,587.67,804.52,758.38c0,0,36.67-21.36,135,4.65,0,0-45.23,69.22-136.35,67.1,0,0,87.32,104.75,220.18-46.56,0,0,140.46-54.31,151.85-170.7Z" transform="translate(-61.31 -180.36)"/><path class="d" d="M166.41,446.8c-1.27,1.22-3.51.83-4.61,2.67-1.6-3.29-4.14-4-7.45-2.28a1.75,1.75,0,0,1-1.77-.19,5.3,5.3,0,0,0-5.51-.2,6.57,6.57,0,0,1-9-2.92c-1.42-2.5-3.2-4.87-4.35-7.43-1.33-3-2.83-5.82-4.32-8.67-4.21-8-8.61-16-12.91-24-3.92-7.32-7.62-14.76-11.76-21.94-3-5.15-5.71-10.43-8.54-15.63-3.66-6.73-7.23-13.53-10.8-20.31-4.66-8.85-9.85-17.42-14.2-26.42-2.13-4.41-4.72-8.56-6.87-12.95-1.67-3.41-3.23-6.53-3-10.35.29-5.78,2-10.8,7-14.28,11.34-7.78,22.59-15.68,33.91-23.5,5.39-3.72,10.84-7.34,16.25-11,6.76-4.62,13.45-9.35,20.23-13.92,7.52-5.06,14.94-10.25,22.39-15.39,5.85-4,11.76-8,17.65-12,4.06-2.74,8.1-5.5,12.18-8.21,3.27-2.16,7.06-2.48,10.8-2.64,1.42-.06,2.55-.92,3.77-1,4-.18,8.2-.59,12.08,1.06,4.49,1.91,7.32,5.41,9.26,9.87,2.34,5.36,5.63,10.24,8.18,15.52,2.79,5.77,6,11.36,9,17,3.65,6.84,7.34,13.66,11,20.52,3.52,6.66,6.92,13.39,10.46,20,3.83,7.2,7.78,14.33,11.64,21.52,1.52,2.83,2.88,5.76,4.43,8.57a3.16,3.16,0,0,0,2.63,1.76,8.67,8.67,0,0,1,7.08,5.82c2,5,5,9.46,7.33,14.26,1.95,4,4.35,7.83,5.7,12.17a7.67,7.67,0,0,1-4.48,9.39c-.38.17-.3.5-.39.79a4.21,4.21,0,0,0-1.68.62c-2.89,2.18-5.86,4.29-8.85,6.29-6.9,4.63-13.62,9.49-20.43,14.23-5.94,4.13-11.82,8.33-17.79,12.41-1.32.9-1.71,1.48-.2,2.46.29.19.44.62.65.94-.45.18-.5.42-.3.89.89,2.06,2.08,4,2.5,6.24.82,4.33,1.77,8.71-1.85,12.39-2,1.4-3.94,2.84-6,4.18-4.41,2.93-8.24,6.73-13.08,9-2.19,1-4.55,2.86-7.09.53,1.46-.82,3-1.53,4.35-2.47,4.26-3,8.36-6.15,12.71-9,3.37-2.19,5.25-5,5.3-9,1.47.41,3.24,1.28,4.34,0,1.26-1.45,1.15-3.46.35-5.32-1.08-2.51-4.09-2.82-5.85-.56a3.59,3.59,0,0,1-1.55-2.7c-.25-1.37-1.18-1.41-2.31-1.21-1.6.29-2.19,1.67-3.38,2.36-3.18,1.84-6,4.21-9.18,6.12s-6,4.11-9.07,6.08-3.07,1.9-2.09,5.2a3.28,3.28,0,0,1,0,.94c-.78.14-.91-.5-1.11-1-.86-2.12-2-2.11-3.69-.78-2.91,2.25-6,4.3-9,6.41q-9.32,6.56-18.67,13.09-9.6,6.7-19.22,13.37A1.84,1.84,0,0,0,166.41,446.8ZM89.94,294.56A8.8,8.8,0,0,0,90.8,298c2.36,4.49,4.71,9,7.19,13.4,2.37,4.22,4.26,8.71,6.78,12.79,3.87,6.27,6.83,13,10.58,19.32,2.69,4.55,4.82,9.42,7.47,14s4.57,9.17,7.41,13.48c2.33,3.54,3.77,7.64,6,11.28,3.26,5.45,5.78,11.27,9,16.73,1.68,2.85,1.53,2.95,4.22,1.23a8.54,8.54,0,0,0,1.48-1.11c2.61-2.61,5.91-4.32,8.77-6.63s6-4,8.93-6.12c3.21-2.25,6.62-4.23,9.78-6.55,3.54-2.6,3.67-1.81,1.74-6-.51-1.12-1.26-2.13-1.85-3.22-4.67-8.57-9.37-17.11-14-25.71C159,335,153.93,325.09,148.61,315.3c-3-5.55-6-11.13-9.05-16.65q-7.23-13.06-13.93-26.39c-1.19-2.36-1.75-2.56-4-1-5,3.38-9.94,6.83-14.91,10.23-4.52,3.09-9.09,6.1-13.53,9.29C91.84,291.73,90.12,292.57,89.94,294.56Zm126.38-87.21a17,17,0,0,0-2.47.82c-2.53,1.33-4.58,3.29-6.94,4.83-2.84,1.86-5.54,3.93-8.44,5.66-4.73,2.81-8.8,6.55-13.55,9.33-1,.61-2.73,1.31-2.13,3a34.68,34.68,0,0,0,2.56,5.45c3.85,7,7.81,13.86,11.63,20.84,3.29,6,6.49,12,9.68,18.08,2.26,4.28,4.78,8.44,6.94,12.76,4.15,8.28,8.57,16.41,13,24.56,4.08,7.58,8.22,15.12,12.11,22.8.94,1.84,1.62,1.16,2.6.48q10.54-7.29,21.07-14.6c3.27-2.28,6.58-4.52,9.75-6.93.6-.46,2.22-.56,1.37-2.34-2.83-5.9-6.09-11.59-9.18-17.34-3.78-7-7.31-14.18-11.29-21.1-2.51-4.38-4.9-8.84-7.13-13.36-3.68-7.45-7.73-14.7-11.6-22.05-3.79-7.2-7.51-14.46-11.47-21.57-1.59-2.86-2.54-6.09-5-8.45C217.37,207.8,217.08,207.17,216.32,207.35ZM208.84,358.1a12.66,12.66,0,0,0-.65-1.87c-2-3.68-4.1-7.31-6.07-11-2.37-4.48-4.9-8.89-7.18-13.4-3.92-7.76-8.2-15.33-12.23-23-4.23-8.08-8.6-16.11-12.89-24.18-3.13-5.87-6.58-11.58-9.35-17.65-.61-1.36-1.46-1.65-2.87-.67-3.89,2.7-7.92,5.2-11.83,7.87-2.93,2-5.61,4.44-8.7,6.1-2.06,1.11-1.7,2.05-1,3.6.84,2,2.37,3.64,3.14,5.52,1.86,4.48,4.52,8.5,6.63,12.83,2.48,5.09,5.54,9.91,8.14,15,2.69,5.23,5.57,10.35,8.35,15.54q5.67,10.56,11.3,21.14,4.9,9.16,9.82,18.31c1.47,2.75,1.82,2.83,4.42.92,1.59-1.16,3.15-2.38,4.77-3.49,4.85-3.3,9.72-6.55,14.58-9.83A3.93,3.93,0,0,0,208.84,358.1ZM186.37,246.81c-.55.38-1.22.22-1.76.69a38.71,38.71,0,0,1-3.42,2.53q-8.7,6-17.42,12c-.86.59-.93,1.24-.41,2.17,2,3.67,3.83,7.46,6,11.06,4.13,6.94,7.66,14.21,11.51,21.3,3.31,6.12,6.68,12.24,9.82,18.47,3.79,7.53,7.91,14.91,11.91,22.34,3.05,5.69,6.17,11.34,9.18,17.05.69,1.3,1.42,1.21,2.4.51,6.85-4.85,13.66-9.75,20.56-14.52,1.39-1,1.33-1.9.69-3.09-5.49-10.16-10.92-20.35-16.51-30.46-4.24-7.68-8.2-15.51-12.4-23.21-3.68-6.74-7.39-13.49-10.74-20.41-2.44-5.06-5.84-9.63-7.7-15A2.07,2.07,0,0,0,186.37,246.81Z" transform="translate(-61.31 -180.36)"/><path class="e" d="M225.31,422.71c2.54,2.33,4.9.49,7.09-.53,4.84-2.24,8.67-6,13.08-9,2-1.34,4-2.78,6-4.18l.45.48a9.77,9.77,0,0,0,2.92-4.15c1.65-5.92-.71-11-3.71-15.85-.21-.32-.36-.75-.65-.94-1.51-1-1.12-1.56.2-2.46,6-4.08,11.85-8.28,17.79-12.41,6.81-4.74,13.53-9.6,20.43-14.23,3-2,6-4.11,8.85-6.29a4.21,4.21,0,0,1,1.68-.62l.06,1.74a5.11,5.11,0,0,0,1.84,4.4c-.54,5.36-3.81,9.55-6.45,13.87A111.69,111.69,0,0,1,284,387.22c-3.7,4.31-7.85,8.28-11.92,12.25a197.76,197.76,0,0,1-16.84,14.41c-4.11,3.17-8,6.69-12.53,9.27-5.89,3.38-11.18,7.7-17.43,10.53-5.37,2.43-10.35,5.73-15.7,8.2a109.61,109.61,0,0,1-16,6.19,119.24,119.24,0,0,1-11.95,3.14,30.4,30.4,0,0,1-10.88.2c-2.35-.45-3.32-2.63-4.29-4.61a1.84,1.84,0,0,1,.85-2.52q9.62-6.67,19.22-13.37,9.35-6.53,18.67-13.09c3-2.11,6.08-4.16,9-6.41,1.72-1.33,2.83-1.34,3.69.78.2.48.33,1.12,1.11,1a9.09,9.09,0,0,1,1.63,3.74A7.52,7.52,0,0,0,225.31,422.71Z" transform="translate(-61.31 -180.36)"/><path class="d" d="M301.3,358.7a5.11,5.11,0,0,1-1.84-4.4C300.38,355.64,301.31,357,301.3,358.7Z" transform="translate(-61.31 -180.36)"/><path class="e" d="M89.94,294.56c.18-2,1.9-2.83,3.21-3.78,4.44-3.19,9-6.2,13.53-9.29,5-3.4,9.92-6.85,14.91-10.23,2.29-1.56,2.85-1.36,4,1q6.7,13.33,13.93,26.39c3.05,5.52,6,11.1,9.05,16.65,5.32,9.79,10.41,19.71,15.67,29.54,4.6,8.6,9.3,17.14,14,25.71.59,1.09,1.34,2.1,1.85,3.22,1.93,4.21,1.8,3.42-1.74,6-3.16,2.32-6.57,4.3-9.78,6.55-3,2.08-6.15,3.89-8.93,6.12s-6.16,4-8.77,6.63a8.54,8.54,0,0,1-1.48,1.11c-2.69,1.72-2.54,1.62-4.22-1.23-3.22-5.46-5.74-11.28-9-16.73-2.18-3.64-3.62-7.74-6-11.28-2.84-4.31-4.83-9-7.41-13.48s-4.78-9.44-7.47-14c-3.75-6.32-6.71-13.05-10.58-19.32-2.52-4.08-4.41-8.57-6.78-12.79-2.48-4.42-4.83-8.91-7.19-13.4A8.8,8.8,0,0,1,89.94,294.56Z" transform="translate(-61.31 -180.36)"/><path class="e" d="M216.32,207.35c.76-.18,1.05.45,1.49.89,2.44,2.36,3.39,5.59,5,8.45,4,7.11,7.68,14.37,11.47,21.57,3.87,7.35,7.92,14.6,11.6,22.05,2.23,4.52,4.62,9,7.13,13.36,4,6.92,7.51,14.08,11.29,21.1,3.09,5.75,6.35,11.44,9.18,17.34.85,1.78-.77,1.88-1.37,2.34-3.17,2.41-6.48,4.65-9.75,6.93q-10.53,7.31-21.07,14.6c-1,.68-1.66,1.36-2.6-.48-3.89-7.68-8-15.22-12.11-22.8-4.39-8.15-8.81-16.28-13-24.56-2.16-4.32-4.68-8.48-6.94-12.76-3.19-6.05-6.39-12.09-9.68-18.08-3.82-7-7.78-13.88-11.63-20.84a34.68,34.68,0,0,1-2.56-5.45c-.6-1.71,1.09-2.41,2.13-3,4.75-2.78,8.82-6.52,13.55-9.33,2.9-1.73,5.6-3.8,8.44-5.66,2.36-1.54,4.41-3.5,6.94-4.83A17,17,0,0,1,216.32,207.35Z" transform="translate(-61.31 -180.36)"/><path class="e" d="M208.84,358.1a3.93,3.93,0,0,1-1.67,1.66c-4.86,3.28-9.73,6.53-14.58,9.83-1.62,1.11-3.18,2.33-4.77,3.49-2.6,1.91-2.95,1.83-4.42-.92q-4.91-9.15-9.82-18.31-5.66-10.58-11.3-21.14c-2.78-5.19-5.66-10.31-8.35-15.54-2.6-5.06-5.66-9.88-8.14-15-2.11-4.33-4.77-8.35-6.63-12.83-.77-1.88-2.3-3.54-3.14-5.52-.65-1.55-1-2.49,1-3.6,3.09-1.66,5.77-4.1,8.7-6.1,3.91-2.67,7.94-5.17,11.83-7.87,1.41-1,2.26-.69,2.87.67,2.77,6.07,6.22,11.78,9.35,17.65,4.29,8.07,8.66,16.1,12.89,24.18,4,7.7,8.31,15.27,12.23,23,2.28,4.51,4.81,8.92,7.18,13.4,2,3.71,4.06,7.34,6.07,11A12.66,12.66,0,0,1,208.84,358.1Z" transform="translate(-61.31 -180.36)"/><path class="e" d="M186.37,246.81a2.07,2.07,0,0,1,1.67,1.43c1.86,5.38,5.26,9.95,7.7,15,3.35,6.92,7.06,13.67,10.74,20.41,4.2,7.7,8.16,15.53,12.4,23.21,5.59,10.11,11,20.3,16.51,30.46.64,1.19.7,2.13-.69,3.09-6.9,4.77-13.71,9.67-20.56,14.52-1,.7-1.71.79-2.4-.51-3-5.71-6.13-11.36-9.18-17.05-4-7.43-8.12-14.81-11.91-22.34-3.14-6.23-6.51-12.35-9.82-18.47-3.85-7.09-7.38-14.36-11.51-21.3-2.13-3.6-3.94-7.39-6-11.06-.52-.93-.45-1.58.41-2.17q8.72-6,17.42-12a38.71,38.71,0,0,0,3.42-2.53C185.15,247,185.82,247.19,186.37,246.81Z" transform="translate(-61.31 -180.36)"/><path class="e" d="M247.67,402.24c.27-2.08-1.66-3.73-1.16-5.86,1.76-2.26,4.77-1.95,5.85.56.8,1.86.91,3.87-.35,5.32C250.91,403.52,249.14,402.65,247.67,402.24Z" transform="translate(-61.31 -180.36)"/><path class="b" d="M254,430h3c1,3-1,6,0,9,12.79,19.61,17.59,42.12,31.11,60.1A169.05,169.05,0,0,0,311,472.43c0-.15,0-.29,0-.43l.31,0c26.75-39.11,48.66-109.06-54.39-181.83l-4,133.85H254C255,426,253,428,254,430Z" transform="translate(-61.31 -180.36)"/></svg>